<svg xmlns="http://www.w3.org/2000/svg" xmlns:xlink="http://www.w3.org/1999/xlink" version="1.1" x="0px" y="0px" viewBox="0 0 100 125" enable-background="new 0 0 100 100" xml:space="preserve"><g><path d="M53.561,8.725c0.207-0.423,0.451-0.732,0.711-0.958c-1.164-0.51-2.772-0.824-4.55-0.824c-3.206,0-5.864,1.023-6.354,2.363   l-0.006,0.001l-1.668,5.566c0.855-0.227,1.801-0.465,2.844-0.714C52.238,12.312,52.404,11.083,53.561,8.725z"/><path d="M98.967,28.841L75.268,63.285c0.545-2.111,1.902-3.844,1.902-3.844c1.113-2.275-0.309-3.295-2.035-3.734   c-0.328-3.066-1.643-5.307-4.914-8.682c-0.828-0.857-1.486-2.41-2.037-3.529c3.15-3.09,2.648-4.854,2.648-4.854l-3.242-0.545   c-0.027-4.658-2.344-8.836-6.004-11.699c-0.096-0.479-0.236-0.966-0.43-1.454c-0.316-0.804-0.617-1.577-0.91-2.318   c3.627-0.883,6.098-2.509,6.4-5.359c0.354-3.306-2.068-6.298-5.688-8.33c-2.379-3.878-6.988-7.188-12.861-8.331   c-9.031-1.755-17.408,1.981-19.045,8.39c-0.058,0.173-0.104,0.351-0.14,0.532c-0.455,2.341,1.071,4.604,3.412,5.06   c2.338,0.454,4.604-1.073,5.058-3.412c0.112-0.58,0.104-1.155,0.002-1.7C36.346,1.763,51.197-1.282,59.342,8.129   c-0.504-0.225-1.023-0.431-1.555-0.618c0,0-2.068-0.83-3.219,1.369c-1.131,2.169-1.396,3.383-7.475,5.002l-0.25,0.06l-0.06,0.021   c-0.438,0.115-0.91,0.231-1.41,0.351c-8.676,2.065-10.629,3.33-10.756,3.415c-0.912,0.516-1.42,1.088-1.42,1.688   c0,1.249,2.19,2.369,5.659,3.131c-0.409,0.999-0.815,2.015-1.231,3.024c-0.25,0.608-0.444,1.19-0.59,1.747   c-3.021,2.798-4.892,6.585-4.92,10.755l-3.384,0.568c0,0-0.522,1.834,2.839,5.039c-0.533,1.098-1.164,2.533-1.947,3.343   c-3.272,3.375-4.586,5.615-4.914,8.682c-1.729,0.438-3.147,1.459-2.034,3.733c0,0,2.409,3.076,2.096,6.023   c-0.051,0.277-0.121,0.502-0.215,0.646c-0.771,1.188-1.201,3.146-2.209,4.435c-1.006,1.281-2.14,1.871-1.724,2.479   c0.733,1.08,1.894-1.252,2.479-0.77c0.16,0.135-1.396,4.773-1.494,5.143c-0.108,0.418-0.254,0.994,0.314,1.09   c0.647,0.111,1.258-1.362,1.696-2.528c0.056-0.146,0.104-0.283,0.153-0.414c0.236-0.635,0.347-1.127,0.609-1.101   c0.176,0.017,0.094,0.58-0.103,1.513v0.002c-0.166,0.797-0.414,1.862-0.656,3.097c-0.147,0.741-0.354,1.297,0.304,1.504   c0.51,0.166,0.791-0.136,1.194-1.457c0.25-0.814,0.562-2.115,0.856-3.146v-0.002c0.261-0.906,0.506-1.606,0.688-1.603   c0.16,0.008,0.068,0.769-0.073,1.604c-0.15,0.873-0.354,1.832-0.381,2.102c-0.156,1.576-0.689,2.252,0.356,2.41   c0.707,0.109,0.987-1.227,1.567-3.4c0.082-0.313,0.168-0.629,0.256-0.942c0.019-0.056,0.033-0.11,0.047-0.166   c0.476-1.688,0.964-3.271,1.134-3.821c0.248-0.804,0.646-1.089,1.062-1.013c0.592,0.11,1.227,0.949,1.532,2.069   c0.47,1.722,2.39,1.517,2.822,0.982c0.433-0.531-0.235-1.141-0.959-1.727c-0.726-0.584-1.226-1.516-1.761-3.383   c-0.187-0.641-0.498-1.176-0.846-1.633c-0.136-0.177-0.275-0.345-0.416-0.502c-0.254-0.283-0.511-0.539-0.734-0.775   c-0.102-0.133-0.231-0.281-0.395-0.449c-0.089-0.111-0.162-0.225-0.22-0.334c-0.021-0.037-0.035-0.078-0.052-0.125   c-0.272-1.602,3.146-6.043,3.146-6.043c0.506-1.211-0.253-2.146-1.408-2.785c1.203-2.496,2.905-5.092,4.944-7.297l-3.782,19.002   c0.106,0.234,0.205,0.498,0.289,0.793c0.528,1.846,0.991,2.633,1.577,3.104c3.759,3.041-1.888,4.442-2.739,1.312   c-0.022-0.084-0.06-0.189-0.103-0.312l-0.584,2.935l-0.358,1.801h4.286c-0.474,2.724-0.211,5.013,0.3,6.769   c0.604,2.074,1.705,3.785,2.711,5.137c0.512,0.688,0.983,1.266,1.332,1.73c0.18,0.239,0.346,0.479,0.476,0.7   c0.11,0.191,0.272,0.509,0.299,0.892c0.037,0.565-0.157,1.021-0.396,1.346c-0.228,0.311-0.528,0.553-0.84,0.75   c-0.619,0.398-1.461,0.746-2.308,1.074c-0.843,0.332-1.752,0.674-2.571,1.066c-0.82,0.396-1.477,0.809-1.884,1.266   c-0.31,0.348-0.429,0.582-0.463,0.703c0.056,0.09,0.325,0.33,1.049,0.461c1.373,0.246,3.371-0.068,4.519-0.812   c0.604-0.395,1.011-0.729,1.351-1.033c0.371-0.342,0.674-0.646,1.056-0.945c0.819-0.646,1.936-1.229,4.444-1.981   c0.449-0.129,0.334-0.28,0.34-0.299c-0.006-0.024-0.043-0.101-0.166-0.261c-6.438-8.45-4.696-12.735-2.075-16.211   c0.09-0.118,0.178-0.233,0.266-0.35H57.24c0.09,0.113,0.178,0.229,0.268,0.35c2.621,3.476,4.361,7.761-2.078,16.211   c-0.121,0.16-0.158,0.232-0.164,0.261c0.004,0.019-0.108,0.17,0.34,0.299c2.511,0.754,3.625,1.336,4.443,1.981   c0.381,0.302,0.684,0.604,1.055,0.945c0.342,0.305,0.744,0.644,1.353,1.033c1.146,0.742,3.146,1.061,4.519,0.812   c0.727-0.131,0.996-0.371,1.051-0.461c-0.035-0.121-0.154-0.355-0.465-0.703c-0.408-0.457-1.062-0.869-1.881-1.266   c-0.822-0.396-1.729-0.734-2.574-1.066c-0.849-0.328-1.687-0.676-2.308-1.074c-0.309-0.197-0.61-0.439-0.84-0.75   c-0.235-0.322-0.435-0.777-0.396-1.346c0.023-0.383,0.189-0.697,0.302-0.892c0.127-0.225,0.295-0.461,0.473-0.7   c0.351-0.468,0.822-1.043,1.334-1.73c1.006-1.352,2.106-3.062,2.711-5.137c0.511-1.756,0.771-4.045,0.298-6.769h4.334l-0.355-1.801   l-0.953-4.781c0.4,0.683,0.959,1.291,1.658,1.765c2.186,1.475,5.047,1.16,6.865-0.601L78,73.482   c1.469,0.947,2.896-1.271,1.432-2.217l-1.803-1.162c0.688-2.101,0.043-4.463-1.705-5.914l23.26-35.199   C99.287,28.843,99.066,28.693,98.967,28.841z M69.432,47.787c2.953,3.051,4.203,5.043,4.572,7.715   c-0.564-0.07-1.109-0.094-1.564-0.094c-0.812,0-1.926,0.191-2.94,0.562c-1.467-3.053-3.644-6.205-6.24-8.695   c1.718-1.091,3.052-2.093,4.084-3c0.119,0.252,0.248,0.52,0.38,0.791C68.146,45.944,68.711,47.041,69.432,47.787z M41.906,23.617   c0.375-1.164,0.691-2.185,0.977-3.081c0.829,0.019,2.148-0.828,3.285-2.182c0.783-0.935,1.314-1.914,1.518-2.698   c0.211,1.29,1.404,2.784,3.188,3.816c2.244,1.295,4.651,1.413,5.694,0.354c0.341,1.056,0.722,2.308,1.201,3.79   c0.535,1.662-0.758,1.814-1.526,2.818c-0.644,0.839,2.438,4.14,0.319,6.707c-0.438,0.503-1.545,1.355-3.149,1.937   c0.024-0.024,0.049-0.049,0.071-0.076c1-1.16,0.425-1.528-1.979-1.788c-1.307-0.177-1.045-1.323-0.991-1.836   c0.051-0.504,0.354-0.988,0.979-1.385l0.016-0.008l0.018-0.01c0.402-0.252,0.445-0.53-0.051-0.542   c-0.521,0.017-1.094,0.025-1.608,0.025c-0.515,0-1.088-0.009-1.609-0.025c-0.493,0.012-0.452,0.29-0.05,0.542   c0.643,0.397,0.957,0.89,1.009,1.402c0.052,0.512,0.312,1.659-0.993,1.836c-2.404,0.26-2.98,0.628-1.98,1.788   c0.031,0.037,0.066,0.072,0.104,0.106c-1.65-0.582-2.777-1.457-3.228-1.967c-2.113-2.567,0.965-5.868,0.319-6.707   C42.662,25.432,41.371,25.279,41.906,23.617z M30.351,55.971c-1.016-0.371-2.129-0.562-2.939-0.562   c-0.457,0-1.002,0.022-1.562,0.094c0.367-2.672,1.617-4.664,4.568-7.715c0.723-0.746,1.287-1.843,1.715-2.72   c0.102-0.209,0.199-0.418,0.297-0.617c1.037,0.887,2.357,1.865,4.047,2.925C33.929,49.854,31.796,52.959,30.351,55.971z    M36.939,46.632c-4.264-2.684-6.066-4.774-6.82-6.102c-0.273-0.488-0.41-0.873-0.475-1.146l8.402-1.414   c0.018,3.584,0.391,7.043,1.066,10.306C38.425,47.659,37.695,47.108,36.939,46.632z M41.816,57.1c0-0.021,0-0.045,0.004-0.062   V48.26h14.844c-2.189,2.24-4.648,4.768-7.071,7.256c-2.137,2.188-4.266,4.377-6.197,6.365C42.396,60.502,41.816,58.859,41.816,57.1   z M49.781,65.766c-2.118-0.387-3.989-1.363-5.385-2.729c4.17-4.291,9.278-9.543,13.348-13.715v7.715   c0.002,0.021,0.002,0.043,0.002,0.063C57.746,61.371,54.328,64.939,49.781,65.766z M51.318,44.551l-1.531-6.148l-1.534,6.148   c-4.852-0.951-8.537-3.539-9.41-6.725l4.406-0.74c1.855,0.781,4.105,1.248,6.538,1.266c2.43-0.018,4.68-0.484,6.533-1.266   l4.406,0.74C59.855,41.012,56.166,43.599,51.318,44.551z M60.455,48.275c0.676-3.263,1.049-6.722,1.068-10.306l8.399,1.414   c-0.063,0.273-0.196,0.658-0.475,1.146c-0.755,1.328-2.558,3.418-6.822,6.102C61.871,47.107,61.143,47.658,60.455,48.275z    M63.25,48.813c2.172,2.268,3.979,4.992,5.242,7.609c-1.154,0.641-1.912,1.576-1.406,2.787c0,0,1.889,2.455,2.746,4.371   c-0.395,0.211-0.768,0.475-1.104,0.785l-1.957-1.264c-0.246-0.158-0.488-0.229-0.722-0.229L63.25,48.813z M67.004,67.65   l-0.287-1.445l0.553,0.357C67.143,66.916,67.055,67.283,67.004,67.65z M67.889,65.34c-0.111,0.166-0.213,0.336-0.305,0.508   l-1.824-1.176c-0.615-0.398-0.02-1.32,0.596-0.924l1.836,1.184C68.086,65.062,67.984,65.199,67.889,65.34z M76.967,71.463   c0.139-0.205,0.262-0.418,0.369-0.633l1.682,1.084c0.615,0.396,0.021,1.322-0.596,0.926l-1.67-1.078   C76.826,71.664,76.898,71.564,76.967,71.463z M75.934,70.768c-1.307,1.938-3.934,2.445-5.871,1.144   c-1.936-1.308-2.446-3.938-1.141-5.869c1.207-1.791,3.545-2.358,5.42-1.406l-2.355,3.423c-0.061,0.075-0.104,0.172-0.116,0.274   c-0.045,0.315,0.178,0.61,0.496,0.655c0.245,0.035,0.481-0.094,0.596-0.305l2.271-3.44C76.799,66.625,77.133,68.988,75.934,70.768z   "/><path d="M49.205,52.062c0.051-0.064,0.107-0.002,0.111,0.062c0.006,0.082-0.092,0.19-0.232,0.074   c-0.076-0.068-0.076-0.168-0.076-0.168c-0.018-0.234,0.104-0.556-0.223-0.585c-1.492-0.147-2.496,1.957-0.229,2.31   c0.896,0.142,0.387,0.925-0.328,0.859c-0.387-0.033-0.57-0.314-0.57-0.314c-0.785-0.864-0.846-0.614-1.158-0.864   c-0.357-0.283-0.316-1.418,0.248-1.306c0.209,0.045,0.209,0.277,0.129,0.47c0.357-0.316,0.406-0.859,0.311-1.136   c-0.111-0.313,0.229-0.252,0.279,0.113c0.24-0.632-0.059-0.935-0.324-1.254c-0.156-0.246,0.154-0.148,0.279,0.064   c-0.014-0.596-0.611-1.025-0.863-1.098l-0.016-0.01l0.279-0.75c0,0-0.08,0.121-0.271,0.176c-0.104,0.029-0.214,0.154-0.154,0.24   c0.062,0.094,0.203-0.012,0.203-0.012s-0.162,0.27-0.371,0.27c-0.316,0-0.34-0.326-0.34-0.326s0.1,0.115,0.193,0.01   c0.092-0.098,0.027-0.236-0.061-0.273c-0.164-0.064-0.201-0.197-0.201-0.197s-0.037,0.133-0.199,0.197   c-0.092,0.037-0.15,0.176-0.062,0.273c0.099,0.105,0.195-0.01,0.195-0.01s-0.021,0.326-0.341,0.326c-0.209,0-0.373-0.27-0.373-0.27   s0.142,0.105,0.207,0.012c0.058-0.086-0.054-0.211-0.155-0.24c-0.188-0.055-0.271-0.176-0.271-0.176l0.297,0.789   c-0.364,0.062-0.36,0.154-0.312,0.197c0.025,0.023,0.098,0.035,0.084,0.057c-0.031,0.049-0.92,0.062-0.811,0.275   c0.084,0.166,0.115,0.262,0.223,0.352c0.055,0.041,0.1,0.023,0.1,0.023s0.014,0.152,0.121,0.182   c-0.055-0.146-0.021-0.295,0.084-0.346c0.113-0.055,0.27,0.025,0.346,0.186c0.078,0.156,0.047,0.328-0.066,0.385   c-0.111,0.053-0.26-0.021-0.338-0.172c-0.025,0.064,0.008,0.115-0.016,0.127c-0.035,0.018-0.086,0.113,0.109,0.26   c0.105,0.08,0.242,0.137,0.33,0.184c0.049-0.077,0.209-0.323,0.354-0.323c0.627,0-0.047,1.354-1.035,1.356   c-0.443,0.006-0.742-0.651-0.762-0.92c-0.021-0.309,0.271-0.133,0.291-0.367c0.062-0.021,0.115-0.055,0.105-0.17   c-0.043,0.058-0.074,0.092-0.141,0.019c-0.035-0.041-0.088-0.041-0.184-0.013c-0.025-0.296,0.275-0.335,0.107-0.505   c0.002-0.086-0.006-0.16-0.086-0.184c0.002,0.041-0.002,0.08-0.033,0.121c-0.053-0.008-0.131-0.045-0.156,0.033   c-0.023,0.068-0.057,0.117-0.072,0.027c-0.014-0.078-0.01-0.107-0.115-0.117c-0.01-0.064-0.033-0.115-0.146-0.094   c0.033,0.023,0.06,0.051,0.051,0.115c-0.062,0.018-0.104,0.037-0.084,0.141c0.007,0.035-0.004,0.072-0.055,0.023   c-0.037-0.039-0.062-0.074-0.146-0.02c-0.055-0.039-0.105-0.064-0.158,0.027c0.039-0.004,0.076-0.002,0.104,0.047   c-0.025,0.074-0.074,0.121,0.033,0.225c0.086,0.081,0.105,0.081,0.082,0.312c-0.039,0.395,0.184,0.264,0.209,0.596   c0.023,0.293-0.068,0.759,0.184,1.002c-0.08-0.188,0.043-0.303,0.086-0.121c0.035,0.156,0.209,0.408,0.447,0.476   c-0.088-0.071-0.137-0.17-0.078-0.256c0.053-0.076,0.23-0.062,0.229,0.09c-0.004,0.115,0.037,0.438,0.086,0.595   c0.031,0.106,0.141,0.266-0.219,0.379c-0.188,0.063-0.662-0.011-0.867-0.242c-0.031-0.033-0.086-0.121-0.031-0.156   c0.074-0.053,0.199-0.117,0.135-0.262c0.053-0.055,0.082-0.109,0.023-0.176c-0.037,0.143-0.096,0.049-0.143,0.106   c-0.016-0.213,0.059-0.498-0.18-0.519c-0.008-0.067-0.055-0.104-0.156-0.098c0.025,0.021,0.059,0.043,0.049,0.1   c-0.025,0.011-0.053,0.006-0.08,0.058c-0.012-0.022-0.047-0.065-0.111-0.033c-0.039-0.055-0.088-0.082-0.156-0.049   c0.029,0.019,0.059,0.037,0.059,0.074c-0.041,0.032-0.09,0.059-0.062,0.166c-0.041-0.027-0.08-0.033-0.119,0.01   c-0.045-0.031-0.092-0.056-0.146,0.021c0.035,0,0.068,0,0.094,0.051c-0.117,0.225,0.152,0.244,0.18,0.475   c0.023,0.203-0.055,0.396,0.26,0.521c0.225,0.088,0.387,0.258,0.562,0.435c0.131,0.125,0.361,0.481,0.732,0.453   c-0.191-0.041-0.148-0.197,0-0.111c0.08,0.048,0.377,0.234,0.678,0.015c-0.1,0-0.215-0.019-0.242-0.101   c-0.02-0.062,0.018-0.104,0.098-0.166c0.379-0.237,0.902,0.07,1.268,0.388c0,0,0.206,0.179,0.271,0.307   c0.084,0.176,0.023,0.48-0.28,0.545c-0.074,0.018-0.16-0.02-0.188-0.084c-0.021-0.039-0.029-0.115,0.037-0.148   c0.032-0.016,0.082-0.043-0.05-0.104c-0.36-0.176-0.604-0.262-0.851-0.297l-0.036-0.006c-0.113-0.016-0.229-0.02-0.363-0.02   c-0.301,0.004-0.53,0.201-0.442,0.434c0.022,0.062,0.045,0.09,0.101,0.101c-0.028-0.054-0.047-0.104-0.019-0.149   c0.039-0.06,0.162-0.052,0.151,0.06c-0.01,0.149,0.063,0.261,0.158,0.353l0.019,0.02c0.098,0.094,0.209,0.172,0.26,0.265   c0.088,0.155,0.17,0.418-0.17,0.498c-0.347,0.081-0.774-0.05-1.086-0.101c-0.301-0.045-0.586,0.144-0.476,0.5   c0.006-0.053,0.037-0.098,0.078-0.096c0.022,0.002,0.053,0.029,0.037,0.059c-0.062,0.131-0.05,0.246,0.045,0.355   c-0.021-0.072,0.015-0.131,0.067-0.115c0.092,0.021-0.002,0.285,0.385,0.311c-0.036-0.032-0.057-0.057-0.047-0.088   c0.021-0.055,0.119,0.019,0.162-0.065c0.022-0.045,0.049-0.106,0.131-0.101c0.119,0.015,0.275,0.062,0.418-0.073   c0.224-0.22,0.685-0.369,0.845-0.438c0.123-0.06,0.188,0.062,0.071,0.136c0.189,0.05,0.236-0.14,0.148-0.226   c-0.341-0.341-0.02-0.602,0.098-0.606c-0.201,0.269,0.045,0.733,0.318,0.612c-0.089-0.019-0.115-0.112-0.074-0.15   c0.051-0.048,0.137,0.002,0.267,0.084c0.088,0.057,0.315,0.109,0.557,0.031c0.188-0.062,0.396-0.176,0.615-0.156   c0.116,0.012,0.438,0.084,0.153,0.354c-0.137,0.131-0.317,0.264-0.541,0.391c-0.229,0.131-0.346,0.066-0.534,0.303   c-0.142,0.175-0.433,0.335-0.152,0.628c-0.006-0.032-0.01-0.065,0.005-0.095c0.028,0.021,0.059,0.039,0.088,0.023   c0.014,0.1,0.065,0.174,0.168,0.217c-0.006-0.031-0.009-0.062,0.004-0.096c0.117,0.066,0.217,0.031,0.306-0.072   c0.032,0.104,0.084,0.186,0.213,0.186c-0.013-0.021-0.019-0.051-0.009-0.094c0.123-0.047,0.227,0.023,0.253-0.129   c0.043-0.24,0.2-0.047,0.271-0.305c0.225-0.85,0.434-1.027,0.76-1.314c0.222-0.194,0.158-0.729-1.256-0.317   c0.312-0.353,1.028-0.136,1.131-0.991c0.002,0.002,0.008-0.043,0.015-0.1c0.769,0.516,1.834-0.381,1.397-0.854   c-0.012-0.016-0.024-0.024-0.041-0.037c-0.217-0.219-0.139-0.271-0.344-0.354c0.104,0.082,0.028,0.164-0.033,0.065   c-0.035-0.055-0.154-0.256-0.401-0.217c0.059,0.029,0.122,0.076,0.112,0.137c-0.006,0.043-0.041,0.056-0.108,0.066   c-0.05,0.008-0.084,0.014-0.127-0.002c-1.431-0.519,0.012-2.035,0.147-1.351c0.08,0.396,0.41,0.451,0.717,0.396   c0.201-0.031,0.381-0.148,0.404-0.307C49.498,51.967,49.228,51.867,49.205,52.062z"/><path d="M44.222,28.4c1.369,1.242,2.256-0.079,4.861-0.079h0.747h0.033h0.747c2.606,0,3.494,1.321,4.863,0.079   c0.079-0.071,0.092-0.084,0.229-0.251c-1.422,1.143-2.771-1.378-5.072-1.378c-0.4,0-0.717,0.267-0.783,0.551   c-0.068-0.284-0.383-0.551-0.782-0.551c-2.303,0-3.65,2.521-5.075,1.378C44.13,28.316,44.142,28.329,44.222,28.4z"/><path d="M55.789,58.461c-1.465-0.404-2.195,0.775-2.307,1.92h-0.246c0.141-1.383,1.246-1.785,1.01-3.164   c-0.254-1.473-0.979-2.166-1.309-2.174c-0.328,0.008-1.054,0.701-1.308,2.174c-0.237,1.379,0.867,1.781,1.009,3.164h-0.246   c-0.107-1.145-0.843-2.324-2.308-1.92c-0.667,0.182-1.09,1.061-0.856,1.678c0.445,1.193,1.792,0.512,1.708,0.158   c-0.041-0.164-0.767,0.041-0.734-0.443c0.053-0.766,1.549-0.43,1.713,0.498l0.012,0.039c-0.139,0.029-0.238,0.131-0.238,0.25   c0,0.125,0.107,0.229,0.25,0.256c-0.041,0.287-0.166,0.564-0.397,0.644c-0.455,0.146-0.492-0.322-0.373-0.539   c0.013-0.045,0-0.062-0.049-0.062c-0.904,0.024-1.006,1.399-0.136,1.457c0.558,0.035,1.322-0.357,1.41-1.492h0.252   c-0.106,1.428-1.521,1.193,0.289,3.176c1.812-1.979,0.398-1.748,0.289-3.176h0.252c0.09,1.135,0.855,1.527,1.412,1.492   c0.869-0.058,0.771-1.433-0.135-1.457c-0.051-0.004-0.062,0.018-0.049,0.062c0.117,0.217,0.082,0.688-0.375,0.539   c-0.23-0.076-0.355-0.354-0.398-0.644c0.146-0.024,0.25-0.131,0.25-0.256c0-0.119-0.104-0.221-0.235-0.25l0.01-0.039   c0.164-0.928,1.664-1.264,1.713-0.498c0.033,0.484-0.69,0.279-0.733,0.443c-0.086,0.354,1.264,1.035,1.713-0.158   C56.879,59.521,56.457,58.643,55.789,58.461z"/><path d="M52.602,22.119c-0.012,0.069-0.012,0.142,0,0.215c0.06,0.34,0.385,0.566,0.726,0.507c0.34-0.059,0.565-0.385,0.506-0.724   c-0.019-0.107-0.062-0.202-0.125-0.28c0.631-0.122,1.205-0.161,1.676-0.125c-0.504-0.503-1.563-0.665-2.67-0.348   c-0.594,0.17-1.437,0.625-1.805,0.954C50.908,22.318,51.406,22.44,52.602,22.119z"/><path d="M45.996,22.117c-0.061,0.339,0.166,0.664,0.506,0.724c0.342,0.06,0.666-0.167,0.727-0.507c0.016-0.073,0.016-0.146,0-0.215   c1.195,0.321,1.693,0.199,1.693,0.199c-0.369-0.329-1.213-0.784-1.805-0.954c-1.104-0.317-2.166-0.155-2.67,0.348   c0.469-0.036,1.045,0.003,1.674,0.125C46.059,21.915,46.015,22.01,45.996,22.117z"/></g></svg>