<svg xmlns="http://www.w3.org/2000/svg" xmlns:xlink="http://www.w3.org/1999/xlink" version="1.1" x="0px" y="0px" viewBox="0 0 100 125" style="enable-background:new 0 0 100 100;" xml:space="preserve"><path d="M35.665,15.64c-5.47-0.975-8.117-5.125-8.142-5.164C27.341,10.18,27.019,10,26.672,10h-0.229  c-0.347,0-0.669,0.18-0.852,0.476c-0.025,0.041-2.634,4.183-8.142,5.164c-0.513,0.092-0.87,0.562-0.819,1.081l4.785,49.154H18.9  c-0.553,0-1,0.447-1,1v6.428c0,0.553,0.447,1,1,1h1.301v9.341c0,3.505,2.852,6.356,6.356,6.356c3.505,0,6.356-2.852,6.356-6.356  v-9.341h1.301c0.553,0,1-0.447,1-1v-6.428c0-0.553-0.447-1-1-1h-2.592l4.861-49.152C36.536,16.203,36.179,15.731,35.665,15.64z   M30.914,83.644c0,2.402-1.954,4.356-4.356,4.356s-4.356-1.954-4.356-4.356v-9.341h3.356v8.398c0,0.553,0.447,1,1,1s1-0.447,1-1  v-8.398h3.356V83.644z M33.215,72.303H19.9v-4.428h13.314V72.303z M29.613,65.875h-2.056v-43c0-0.553-0.447-1-1-1s-1,0.447-1,1v43  h-2.134l-4.717-48.457c4.124-1.001,6.686-3.494,7.85-4.898c1.165,1.404,3.726,3.897,7.85,4.898L29.613,65.875z"/><path d="M59.233,15.64c-5.47-0.975-8.118-5.125-8.143-5.164C50.908,10.18,50.586,10,50.239,10h-0.229  c-0.345,0-0.667,0.181-0.85,0.473c-0.026,0.042-2.675,4.192-8.145,5.167c-0.513,0.092-0.87,0.562-0.819,1.081l4.785,49.154h-2.515  c-0.553,0-1,0.447-1,1v6.428c0,0.553,0.447,1,1,1h1.301v9.341c0,3.505,2.852,6.356,6.356,6.356s6.356-2.852,6.356-6.356v-9.341  h1.301c0.553,0,1-0.447,1-1v-6.428c0-0.553-0.447-1-1-1H55.19l4.862-49.152C60.104,16.203,59.747,15.731,59.233,15.64z   M54.481,83.644c0,2.402-1.954,4.356-4.356,4.356s-4.356-1.954-4.356-4.356v-9.341h3.356v8.398c0,0.553,0.447,1,1,1s1-0.447,1-1  v-8.398h3.356V83.644z M56.782,72.303H43.468v-4.428h13.314V72.303z M53.181,65.875h-2.056v-43c0-0.553-0.447-1-1-1s-1,0.447-1,1v43  h-2.134l-4.717-48.457c4.124-1.001,6.686-3.493,7.851-4.897c1.165,1.403,3.727,3.896,7.85,4.897L53.181,65.875z"/><path d="M82.801,15.64c-5.47-0.975-8.117-5.125-8.142-5.164C74.477,10.18,74.154,10,73.808,10h-0.229  c-0.347,0-0.669,0.18-0.852,0.476c-0.025,0.041-2.634,4.183-8.142,5.164c-0.513,0.092-0.87,0.562-0.819,1.081l4.784,49.154h-2.515  c-0.553,0-1,0.447-1,1v6.428c0,0.553,0.447,1,1,1h1.301v9.341c0,3.505,2.852,6.356,6.356,6.356s6.356-2.852,6.356-6.356v-9.341  h1.301c0.553,0,1-0.447,1-1v-6.428c0-0.553-0.447-1-1-1h-2.591l4.861-49.152C83.672,16.203,83.314,15.731,82.801,15.64z   M78.049,83.644c0,2.402-1.954,4.356-4.356,4.356s-4.356-1.954-4.356-4.356v-9.341h3.356v8.398c0,0.553,0.447,1,1,1s1-0.447,1-1  v-8.398h3.356V83.644z M80.35,72.303H67.035v-4.428H80.35V72.303z M76.749,65.875h-2.057v-43c0-0.553-0.447-1-1-1s-1,0.447-1,1v43  h-2.134l-4.716-48.457c4.124-1.001,6.686-3.494,7.851-4.898c1.164,1.404,3.725,3.897,7.849,4.898L76.749,65.875z"/></svg>